<?xml version="1.0" encoding="utf-8"?>
<!-- Generator: Adobe Illustrator 19.1.0, SVG Export Plug-In . SVG Version: 6.00 Build 0)  -->
<svg version="1.1" id="Layer_1" xmlns="http://www.w3.org/2000/svg" xmlns:xlink="http://www.w3.org/1999/xlink" x="0px" y="0px"
	 width="143px" height="138px" viewBox="0 0 143 138" style="enable-background:new 0 0 143 138;" xml:space="preserve">
<style type="text/css">
	.st0{fill:#E8615B;}
	.st1{fill-rule:evenodd;clip-rule:evenodd;fill:#E8615B;}
	.st2{fill:none;}
</style>
<g>
	<path class="st0" d="M119.1,5.6H23.9C14.6,5.6,7,13.2,7,22.5v93c0,9.3,7.6,16.9,16.9,16.9h95.2c9.3,0,16.9-7.6,16.9-16.9v-93
		C136,13.2,128.4,5.6,119.1,5.6z M106.2,51.8c0,0.7,0.1,1.5,0.1,2.2c0,22.9-17.5,49.4-49.4,49.4c-9.8,0-18.9-2.9-26.6-7.8
		c1.4,0.2,2.7,0.2,4.1,0.2c8.1,0,15.6-2.8,21.5-7.4c-7.6-0.1-14-5.2-16.2-12.1c1.1,0.2,2.1,0.3,3.3,0.3c1.6,0,3.1-0.2,4.6-0.6
		c-7.9-1.6-13.9-8.6-13.9-17v-0.2c2.3,1.3,5,2.1,7.9,2.2c-4.6-3.1-7.7-8.4-7.7-14.4c0-3.2,0.9-6.2,2.3-8.7
		C44.8,48.3,57.5,55.2,72,55.9c-0.3-1.3-0.5-2.6-0.5-4c0-9.6,7.8-17.3,17.4-17.3c5,0,9.5,2.1,12.7,5.5c4-0.8,7.7-2.2,11-4.2
		c-1.3,4-4,7.5-7.6,9.6c3.5-0.4,6.8-1.4,10-2.7C112.5,46.3,109.6,49.3,106.2,51.8z"/>
</g>
</svg>
