<?xml version="1.0" encoding="utf-8"?>
<!-- Generator: Adobe Illustrator 19.1.0, SVG Export Plug-In . SVG Version: 6.00 Build 0)  -->
<svg version="1.1" id="Layer_1" xmlns="http://www.w3.org/2000/svg" xmlns:xlink="http://www.w3.org/1999/xlink" x="0px" y="0px"
	 width="143px" height="138px" viewBox="0 0 143 138" style="enable-background:new 0 0 143 138;" xml:space="preserve">
<style type="text/css">
	.st0{fill:#FF786C;}
	.st1{fill-rule:evenodd;clip-rule:evenodd;fill:#FF786C;}
	.st2{fill:none;}
</style>
<g>
	<path class="st0" d="M33.2,5.3c0.5,0,1,0,1.5,0c0.7,0.2,0.9,0.7,0.9,1.3c0,0.2,0,0.4,0,0.6c0,4,0,7.9,0,11.9c0,4.4,0,8.7,0,13.1
		c0,1.2,0,2.4,0,3.6c0,0.7,0.3,1,1,1.1c1,0,2,0,3-0.1c0.6-0.1,0.9-0.4,1-1c0.1-0.4,0.1-0.7,0.1-1.1c0-1.4,0-2.8,0-4.2
		c0-7.9,0-15.8,0-23.7c0-0.8,0-1.2,1-1.5c19.5,0,39,0,58.5,0c0.1,0,0.3,0,0.4,0c3.5,0,7,0,10.4,0c1.8,0,3.5,0.2,5.2,0.6
		c5.4,1.3,9.9,4.1,13.5,8.2c2.9,3.3,4.8,7.1,5.6,11.4c0.4,2.3,0.5,4.6,0.5,6.9c0,4.5,0,9,0,13.6c0,0.7-0.2,0.9-0.9,0.9
		c-0.2,0-0.3,0-0.5,0c-12.8,0-25.6,0-38.4,0c-0.9,0-1.5-0.2-2.1-0.8c-1.7-1.6-3.5-3-5.5-4.2c-7.1-4.2-14.8-5.7-23-4.2
		c-6.4,1.2-11.9,4-16.6,8.3c-0.6,0.6-1.3,0.8-2.2,0.8c-12.9,0-25.8,0-38.6,0c-0.8,0-1-0.2-1-1c0-1.1,0-2.3,0-3.4
		c0-4.8-0.2-9.6,0.2-14.4c0.2-2.9,0.9-5.7,2.2-8.4c1.9-4,4.8-7.2,8.3-9.8c0.1,0,0.1-0.1,0.2-0.1c0,0.1,0,0.1,0,0.1
		c0,7.6,0,15.1,0,22.7c0,1.1,0,2.1,0,3.1c0,0.7,0.3,1,1,1c1,0,1.9,0,2.9-0.1c0.6-0.1,1-0.4,1-1.1c0.1-0.4,0.1-0.8,0.1-1.2
		c0-8.6,0-17.1,0-25.7c0-0.2,0-0.4,0-0.6c-0.1-0.9-0.1-1,0.7-1.3c0.8-0.4,1.6-0.7,2.4-0.7c0.6,0,0.8,0.1,0.7,0.7
		c0,0.2-0.1,0.4-0.1,0.7c0,7.7,0,15.5,0,23.2c0,1.7,0,3.4,0,5.1c0,0.7,0.3,1,1,1.1c0.9,0,1.9,0,2.8-0.1c0.9-0.1,1.2-0.4,1.3-1.3
		c0.1-0.5,0.1-1,0.1-1.4c0-4.5,0-9.1,0-13.6c0-4.5,0-9-0.1-13.5C32,5.8,32.1,5.6,33.2,5.3z M102.4,26.7
		C102.4,26.7,102.4,26.7,102.4,26.7c0,2.4,0,4.7,0,7.1c0,2.3,1.7,3.8,4.1,3.8c4.5,0,9.1,0,13.6,0c2.4,0,4.1-1.6,4.1-4
		c0-4.6,0-9.1,0-13.7c0-2.4-1.6-4-4.1-4c-4.6,0-9.1,0-13.7,0c-2.4,0-3.9,1.5-4,3.9C102.4,22.1,102.4,24.4,102.4,26.7z"/>
	<path class="st1" d="M44.6,50.8c-5,7.3-7.1,15.2-5.7,24c1.3,7.6,4.8,14,10.7,19.1c11.9,10.2,29,10.9,41.5,1.6
		c7.1-5.3,11.4-12.3,12.8-20.9c1.4-8.6-0.7-16.5-5.7-23.8c0.2,0,0.3,0,0.5,0c10.7,0,21.4,0,32.1,0c1.2,0,2.4,0,3.5,0
		c0.2,0,0.5,0,0.7,0c0.5,0.1,0.9,0.3,0.9,0.9c0.1,0.7,0.1,1.5,0.1,2.2c0,5.3,0,10.5,0,15.8c0,12.8,0,25.7,0,38.5
		c0,6.3-2.4,11.8-6.7,16.4c-3.8,4.1-8.5,6.7-14,7.7c-1.4,0.3-2.8,0.4-4.3,0.4c-26.2,0-52.4,0.1-78.6,0c-11.8,0-21.6-7.8-24.5-18.9
		c-0.6-2.2-0.8-4.4-0.8-6.7c0-12,0-24,0-35.9c0-6.1,0-12.3,0-18.4c0-0.3,0-0.5,0-0.8c0.1-0.8,0.4-1.1,1.2-1.1c0.8,0,1.7,0,2.5,0
		c11.1,0,22.2,0,33.3,0C44.2,50.8,44.4,50.8,44.6,50.8z"/>
	<path class="st1" d="M71.6,44.6c14,0,25.4,11.2,25.4,25c0,13.9-11.3,24.9-25.5,24.9c-14,0-25.4-11.2-25.4-25
		C46.1,55.8,57.5,44.6,71.6,44.6z M90.3,69.9c0.1-10.2-8-18.9-19-18.7C61,51.3,52.6,59.8,52.9,69.9c0.3,10.2,8.7,18.4,19.2,18.1
		C82.1,87.8,90.4,79.5,90.3,69.9z"/>
</g>
</svg>
