<?xml version="1.0" encoding="utf-8"?>
<!-- Generator: Adobe Illustrator 19.1.0, SVG Export Plug-In . SVG Version: 6.00 Build 0)  -->
<svg version="1.1" id="Layer_1" xmlns="http://www.w3.org/2000/svg" xmlns:xlink="http://www.w3.org/1999/xlink" x="0px" y="0px"
	 width="143px" height="138px" viewBox="0 0 143 138" style="enable-background:new 0 0 143 138;" xml:space="preserve">
<style type="text/css">
	.st0{fill:#FF786C;}
	.st1{fill-rule:evenodd;clip-rule:evenodd;fill:#FF786C;}
	.st2{fill:none;}
</style>
<g>
	<path class="st0" d="M78.8,61.7v-0.2c0,0.1-0.1,0.1-0.1,0.2H78.8z"/>
	<path class="st0" d="M121.5,6H18.7C11.5,6,5.6,11.9,5.6,19.1v99.8c0,7.2,5.9,13.1,13.1,13.1h102.8c7.2,0,13.1-5.9,13.1-13.1V19.1
		C134.6,11.9,128.7,6,121.5,6z M49.6,110.2H30.7V53.5h18.8V110.2z M40.1,45.8H40c-6.3,0-10.4-4.4-10.4-9.8c0-5.6,4.2-9.8,10.7-9.8
		c6.4,0,10.4,4.2,10.5,9.8C50.8,41.4,46.7,45.8,40.1,45.8z M117.5,110.2H98.7V79.9c0-7.6-2.7-12.8-9.5-12.8c-5.2,0-8.3,3.5-9.7,6.9
		c-0.5,1.2-0.6,2.9-0.6,4.6v31.7H60c0,0,0.2-51.4,0-56.7h18.8v8c2.5-3.9,7-9.4,17-9.4c12.4,0,21.7,8.1,21.7,25.5V110.2z"/>
</g>
</svg>
